<?xml version="1.0" encoding="UTF-8"?>
<svg xmlns="http://www.w3.org/2000/svg" xmlns:xlink="http://www.w3.org/1999/xlink" width="854" height="480" viewBox="0 0 854 480">
<defs>
<g>
<g id="glyph-0-0">
<path d="M 2.3125 0.09375 C 1.84375 0.09375 1.460938 0.0390625 1.171875 -0.0625 C 0.890625 -0.175781 0.6875 -0.316406 0.5625 -0.484375 C 0.4375 -0.660156 0.375 -0.847656 0.375 -1.046875 C 0.375 -1.265625 0.441406 -1.425781 0.578125 -1.53125 C 0.722656 -1.644531 0.90625 -1.703125 1.125 -1.703125 C 1.125 -1.523438 1.15625 -1.347656 1.21875 -1.171875 C 1.289062 -0.992188 1.398438 -0.847656 1.546875 -0.734375 C 1.703125 -0.617188 1.910156 -0.5625 2.171875 -0.5625 C 2.378906 -0.5625 2.570312 -0.609375 2.75 -0.703125 C 2.925781 -0.796875 3.066406 -0.953125 3.171875 -1.171875 C 3.273438 -1.390625 3.328125 -1.691406 3.328125 -2.078125 C 3.328125 -2.546875 3.210938 -2.894531 2.984375 -3.125 C 2.765625 -3.351562 2.453125 -3.46875 2.046875 -3.46875 C 1.804688 -3.46875 1.609375 -3.453125 1.453125 -3.421875 C 1.296875 -3.390625 1.144531 -3.347656 1 -3.296875 L 0.5625 -3.46875 L 0.875 -6.734375 L 4.4375 -6.734375 L 4.484375 -5.015625 L 3.9375 -5.015625 L 3.875 -5.34375 C 3.84375 -5.457031 3.796875 -5.546875 3.734375 -5.609375 C 3.679688 -5.671875 3.582031 -5.703125 3.4375 -5.703125 L 1.46875 -5.703125 L 1.328125 -3.953125 C 1.421875 -3.992188 1.566406 -4.023438 1.765625 -4.046875 C 1.960938 -4.078125 2.160156 -4.09375 2.359375 -4.09375 C 3.085938 -4.09375 3.671875 -3.925781 4.109375 -3.59375 C 4.554688 -3.257812 4.78125 -2.753906 4.78125 -2.078125 C 4.78125 -1.671875 4.703125 -1.328125 4.546875 -1.046875 C 4.398438 -0.765625 4.207031 -0.539062 3.96875 -0.375 C 3.726562 -0.207031 3.460938 -0.0859375 3.171875 -0.015625 C 2.878906 0.0546875 2.59375 0.09375 2.3125 0.09375 Z "/>
</g>
<g id="glyph-0-1">
<path d="M 1.390625 0.078125 C 1.171875 0.078125 0.984375 0.0234375 0.828125 -0.078125 C 0.679688 -0.191406 0.609375 -0.390625 0.609375 -0.671875 C 0.609375 -0.960938 0.679688 -1.160156 0.828125 -1.265625 C 0.984375 -1.378906 1.171875 -1.4375 1.390625 -1.4375 C 1.597656 -1.4375 1.773438 -1.378906 1.921875 -1.265625 C 2.078125 -1.160156 2.15625 -0.960938 2.15625 -0.671875 C 2.15625 -0.390625 2.078125 -0.191406 1.921875 -0.078125 C 1.773438 0.0234375 1.597656 0.078125 1.390625 0.078125 Z "/>
</g>
<g id="glyph-0-2">
</g>
<g id="glyph-0-3">
<path d="M 1.453125 0 L 1.453125 -0.5 L 1.84375 -0.5 C 1.988281 -0.5 2.101562 -0.53125 2.1875 -0.59375 C 2.28125 -0.664062 2.328125 -0.835938 2.328125 -1.109375 L 2.328125 -6.15625 L 1.578125 -6.15625 C 1.296875 -6.15625 1.097656 -6.09375 0.984375 -5.96875 C 0.878906 -5.851562 0.816406 -5.695312 0.796875 -5.5 L 0.734375 -4.90625 L 0.09375 -4.90625 L 0.140625 -6.734375 L 6.015625 -6.734375 L 6.0625 -4.90625 L 5.4375 -4.90625 L 5.375 -5.5 C 5.34375 -5.695312 5.273438 -5.851562 5.171875 -5.96875 C 5.066406 -6.09375 4.875 -6.15625 4.59375 -6.15625 L 3.828125 -6.15625 L 3.828125 -1.109375 C 3.828125 -0.835938 3.875 -0.664062 3.96875 -0.59375 C 4.0625 -0.53125 4.175781 -0.5 4.3125 -0.5 L 4.703125 -0.5 L 4.703125 0 Z "/>
</g>
<g id="glyph-0-4">
<path d="M 0.1875 0 L 0.1875 -0.5 L 0.203125 -0.5 C 0.421875 -0.5 0.597656 -0.535156 0.734375 -0.609375 C 0.878906 -0.691406 0.953125 -0.875 0.953125 -1.15625 L 0.9375 -6.09375 C 0.9375 -6.257812 0.898438 -6.382812 0.828125 -6.46875 C 0.753906 -6.550781 0.664062 -6.601562 0.5625 -6.625 C 0.457031 -6.65625 0.363281 -6.671875 0.28125 -6.671875 L 0.15625 -6.671875 L 0.15625 -7.171875 L 2.375 -7.171875 L 2.375 -5.609375 C 2.375 -5.453125 2.367188 -5.28125 2.359375 -5.09375 C 2.347656 -4.90625 2.332031 -4.742188 2.3125 -4.609375 C 2.300781 -4.484375 2.296875 -4.421875 2.296875 -4.421875 L 2.390625 -4.421875 C 2.515625 -4.660156 2.648438 -4.832031 2.796875 -4.9375 C 2.941406 -5.039062 3.101562 -5.109375 3.28125 -5.140625 C 3.457031 -5.171875 3.640625 -5.1875 3.828125 -5.1875 C 4.316406 -5.1875 4.695312 -5.039062 4.96875 -4.75 C 5.25 -4.457031 5.390625 -3.992188 5.390625 -3.359375 L 5.390625 -1.171875 C 5.390625 -0.878906 5.441406 -0.691406 5.546875 -0.609375 C 5.648438 -0.535156 5.804688 -0.5 6.015625 -0.5 L 6.046875 -0.5 L 6.046875 0 L 3.953125 0 L 3.953125 -3.109375 C 3.953125 -3.515625 3.894531 -3.828125 3.78125 -4.046875 C 3.664062 -4.265625 3.472656 -4.375 3.203125 -4.375 C 2.992188 -4.375 2.828125 -4.304688 2.703125 -4.171875 C 2.585938 -4.035156 2.503906 -3.851562 2.453125 -3.625 C 2.398438 -3.40625 2.375 -3.171875 2.375 -2.921875 L 2.390625 -1.109375 C 2.390625 -0.847656 2.445312 -0.679688 2.5625 -0.609375 C 2.6875 -0.535156 2.851562 -0.5 3.0625 -0.5 L 3.09375 -0.5 L 3.09375 0 Z "/>
</g>
<g id="glyph-0-5">
<path d="M 2.890625 0.09375 C 2.085938 0.09375 1.476562 -0.132812 1.0625 -0.59375 C 0.644531 -1.050781 0.4375 -1.6875 0.4375 -2.5 C 0.4375 -3.382812 0.640625 -4.050781 1.046875 -4.5 C 1.460938 -4.957031 2.039062 -5.1875 2.78125 -5.1875 C 3.46875 -5.1875 4.007812 -4.992188 4.40625 -4.609375 C 4.800781 -4.222656 5 -3.65625 5 -2.90625 L 5 -2.421875 L 1.890625 -2.421875 C 1.910156 -1.796875 2.03125 -1.335938 2.25 -1.046875 C 2.46875 -0.753906 2.769531 -0.609375 3.15625 -0.609375 C 3.488281 -0.609375 3.765625 -0.679688 3.984375 -0.828125 C 4.210938 -0.984375 4.382812 -1.164062 4.5 -1.375 C 4.664062 -1.28125 4.75 -1.128906 4.75 -0.921875 C 4.75 -0.648438 4.597656 -0.410156 4.296875 -0.203125 C 3.992188 -0.00390625 3.523438 0.09375 2.890625 0.09375 Z M 3.546875 -3.03125 C 3.546875 -3.507812 3.488281 -3.882812 3.375 -4.15625 C 3.257812 -4.425781 3.066406 -4.5625 2.796875 -4.5625 C 2.535156 -4.5625 2.328125 -4.429688 2.171875 -4.171875 C 2.015625 -3.910156 1.929688 -3.53125 1.921875 -3.03125 Z "/>
</g>
<g id="glyph-0-6">
<path d="M 0.125 2.265625 L 0.125 1.765625 L 0.234375 1.765625 C 0.328125 1.765625 0.425781 1.75 0.53125 1.71875 C 0.632812 1.695312 0.722656 1.640625 0.796875 1.546875 C 0.867188 1.460938 0.90625 1.332031 0.90625 1.15625 L 0.90625 -3.890625 C 0.90625 -4.179688 0.84375 -4.363281 0.71875 -4.4375 C 0.601562 -4.519531 0.457031 -4.5625 0.28125 -4.5625 L 0.203125 -4.5625 L 0.203125 -5.0625 L 2.0625 -5.0625 L 2.234375 -4.328125 L 2.265625 -4.328125 C 2.398438 -4.566406 2.582031 -4.765625 2.8125 -4.921875 C 3.039062 -5.078125 3.335938 -5.15625 3.703125 -5.15625 C 4.335938 -5.15625 4.816406 -4.941406 5.140625 -4.515625 C 5.472656 -4.097656 5.640625 -3.429688 5.640625 -2.515625 C 5.640625 -1.597656 5.476562 -0.929688 5.15625 -0.515625 C 4.832031 -0.0976562 4.363281 0.109375 3.75 0.109375 C 3.382812 0.109375 3.085938 0.0390625 2.859375 -0.09375 C 2.640625 -0.226562 2.460938 -0.410156 2.328125 -0.640625 L 2.265625 -0.640625 C 2.273438 -0.554688 2.285156 -0.4375 2.296875 -0.28125 C 2.316406 -0.132812 2.328125 0.00390625 2.328125 0.140625 C 2.335938 0.285156 2.34375 0.40625 2.34375 0.5 L 2.34375 1.15625 C 2.34375 1.332031 2.378906 1.460938 2.453125 1.546875 C 2.523438 1.640625 2.613281 1.695312 2.71875 1.71875 C 2.820312 1.75 2.921875 1.765625 3.015625 1.765625 L 3.21875 1.765625 L 3.21875 2.265625 Z M 3.296875 -0.578125 C 3.617188 -0.578125 3.847656 -0.734375 3.984375 -1.046875 C 4.117188 -1.367188 4.1875 -1.851562 4.1875 -2.5 C 4.1875 -3.125 4.117188 -3.601562 3.984375 -3.9375 C 3.847656 -4.269531 3.625 -4.4375 3.3125 -4.4375 C 2.9375 -4.4375 2.679688 -4.269531 2.546875 -3.9375 C 2.410156 -3.601562 2.34375 -3.128906 2.34375 -2.515625 C 2.34375 -1.859375 2.410156 -1.367188 2.546875 -1.046875 C 2.679688 -0.734375 2.929688 -0.578125 3.296875 -0.578125 Z "/>
</g>
<g id="glyph-0-7">
<path d="M 1.90625 0.09375 C 1.488281 0.09375 1.132812 -0.03125 0.84375 -0.28125 C 0.5625 -0.53125 0.421875 -0.914062 0.421875 -1.4375 C 0.421875 -1.945312 0.597656 -2.320312 0.953125 -2.5625 C 1.304688 -2.8125 1.832031 -2.953125 2.53125 -2.984375 L 3.3125 -3.015625 L 3.3125 -3.53125 C 3.3125 -3.84375 3.273438 -4.097656 3.203125 -4.296875 C 3.140625 -4.503906 2.984375 -4.609375 2.734375 -4.609375 C 2.492188 -4.609375 2.328125 -4.507812 2.234375 -4.3125 C 2.140625 -4.125 2.09375 -3.882812 2.09375 -3.59375 C 1.675781 -3.59375 1.359375 -3.640625 1.140625 -3.734375 C 0.929688 -3.828125 0.828125 -3.988281 0.828125 -4.21875 C 0.828125 -4.445312 0.910156 -4.628906 1.078125 -4.765625 C 1.253906 -4.910156 1.488281 -5.015625 1.78125 -5.078125 C 2.082031 -5.148438 2.410156 -5.1875 2.765625 -5.1875 C 3.421875 -5.1875 3.914062 -5.066406 4.25 -4.828125 C 4.582031 -4.585938 4.75 -4.171875 4.75 -3.578125 L 4.75 -1.171875 C 4.75 -0.910156 4.789062 -0.734375 4.875 -0.640625 C 4.957031 -0.546875 5.101562 -0.5 5.3125 -0.5 L 5.34375 -0.5 L 5.34375 0 L 3.59375 0 L 3.390625 -0.65625 L 3.3125 -0.65625 C 3.175781 -0.476562 3.046875 -0.332031 2.921875 -0.21875 C 2.796875 -0.113281 2.65625 -0.0351562 2.5 0.015625 C 2.34375 0.0664062 2.144531 0.09375 1.90625 0.09375 Z M 2.421875 -0.59375 C 2.691406 -0.59375 2.90625 -0.703125 3.0625 -0.921875 C 3.226562 -1.140625 3.3125 -1.429688 3.3125 -1.796875 L 3.3125 -2.515625 L 2.890625 -2.484375 C 2.515625 -2.460938 2.253906 -2.363281 2.109375 -2.1875 C 1.960938 -2.007812 1.890625 -1.75 1.890625 -1.40625 C 1.890625 -0.863281 2.066406 -0.59375 2.421875 -0.59375 Z "/>
</g>
<g id="glyph-0-8">
<path d="M 0.1875 0 L 0.1875 -0.5 L 0.21875 -0.5 C 0.425781 -0.5 0.597656 -0.535156 0.734375 -0.609375 C 0.867188 -0.691406 0.9375 -0.882812 0.9375 -1.1875 L 0.9375 -3.921875 C 0.9375 -4.191406 0.875 -4.363281 0.75 -4.4375 C 0.632812 -4.519531 0.472656 -4.5625 0.265625 -4.5625 L 0.234375 -4.5625 L 0.234375 -5.0625 L 2.140625 -5.0625 L 2.328125 -4.328125 L 2.375 -4.328125 C 2.5 -4.609375 2.65625 -4.816406 2.84375 -4.953125 C 3.039062 -5.097656 3.328125 -5.171875 3.703125 -5.171875 C 4.429688 -5.171875 4.796875 -4.914062 4.796875 -4.40625 C 4.796875 -4.113281 4.6875 -3.882812 4.46875 -3.71875 C 4.257812 -3.5625 3.96875 -3.484375 3.59375 -3.484375 C 3.59375 -3.742188 3.5625 -3.941406 3.5 -4.078125 C 3.4375 -4.210938 3.316406 -4.28125 3.140625 -4.28125 C 2.972656 -4.28125 2.835938 -4.222656 2.734375 -4.109375 C 2.628906 -3.992188 2.550781 -3.851562 2.5 -3.6875 C 2.457031 -3.519531 2.425781 -3.347656 2.40625 -3.171875 C 2.382812 -3.003906 2.375 -2.867188 2.375 -2.765625 L 2.375 -1.125 C 2.375 -0.851562 2.4375 -0.679688 2.5625 -0.609375 C 2.6875 -0.535156 2.84375 -0.5 3.03125 -0.5 L 3.34375 -0.5 L 3.34375 0 Z "/>
</g>
<g id="glyph-0-9">
<path d="M 3.75 0.09375 C 3.382812 0.09375 3.085938 0.015625 2.859375 -0.140625 C 2.628906 -0.296875 2.441406 -0.492188 2.296875 -0.734375 L 2.21875 -0.734375 L 1.953125 0 L 0.15625 0 L 0.15625 -0.5 L 0.21875 -0.5 C 0.34375 -0.5 0.457031 -0.515625 0.5625 -0.546875 C 0.675781 -0.578125 0.765625 -0.640625 0.828125 -0.734375 C 0.898438 -0.828125 0.9375 -0.96875 0.9375 -1.15625 L 0.9375 -6.046875 C 0.9375 -6.316406 0.863281 -6.488281 0.71875 -6.5625 C 0.570312 -6.632812 0.398438 -6.671875 0.203125 -6.671875 L 0.15625 -6.671875 L 0.15625 -7.171875 L 2.375 -7.171875 L 2.375 -5.5625 C 2.375 -5.46875 2.367188 -5.347656 2.359375 -5.203125 C 2.359375 -5.066406 2.351562 -4.925781 2.34375 -4.78125 C 2.332031 -4.632812 2.316406 -4.515625 2.296875 -4.421875 L 2.375 -4.421875 C 2.507812 -4.648438 2.6875 -4.832031 2.90625 -4.96875 C 3.132812 -5.101562 3.425781 -5.171875 3.78125 -5.171875 C 4.394531 -5.171875 4.863281 -4.960938 5.1875 -4.546875 C 5.519531 -4.128906 5.6875 -3.460938 5.6875 -2.546875 C 5.6875 -1.640625 5.519531 -0.972656 5.1875 -0.546875 C 4.851562 -0.117188 4.375 0.09375 3.75 0.09375 Z M 3.34375 -0.609375 C 3.664062 -0.609375 3.894531 -0.773438 4.03125 -1.109375 C 4.164062 -1.441406 4.234375 -1.925781 4.234375 -2.5625 C 4.234375 -3.195312 4.160156 -3.671875 4.015625 -3.984375 C 3.878906 -4.304688 3.65625 -4.46875 3.34375 -4.46875 C 2.96875 -4.46875 2.710938 -4.3125 2.578125 -4 C 2.441406 -3.6875 2.375 -3.203125 2.375 -2.546875 C 2.375 -1.921875 2.441406 -1.441406 2.578125 -1.109375 C 2.710938 -0.773438 2.96875 -0.609375 3.34375 -0.609375 Z "/>
</g>
<g id="glyph-0-10">
<path d="M 2.875 0.09375 C 2.125 0.09375 1.53125 -0.125 1.09375 -0.5625 C 0.65625 -1 0.4375 -1.660156 0.4375 -2.546875 C 0.4375 -3.429688 0.644531 -4.09375 1.0625 -4.53125 C 1.476562 -4.96875 2.09375 -5.1875 2.90625 -5.1875 C 3.664062 -5.1875 4.257812 -4.96875 4.6875 -4.53125 C 5.125 -4.09375 5.34375 -3.429688 5.34375 -2.546875 C 5.34375 -1.660156 5.132812 -1 4.71875 -0.5625 C 4.300781 -0.125 3.6875 0.09375 2.875 0.09375 Z M 2.890625 -0.5 C 3.253906 -0.5 3.507812 -0.671875 3.65625 -1.015625 C 3.800781 -1.367188 3.875 -1.878906 3.875 -2.546875 C 3.875 -3.222656 3.800781 -3.726562 3.65625 -4.0625 C 3.507812 -4.40625 3.253906 -4.578125 2.890625 -4.578125 C 2.523438 -4.578125 2.269531 -4.40625 2.125 -4.0625 C 1.976562 -3.726562 1.90625 -3.222656 1.90625 -2.546875 C 1.90625 -1.878906 1.976562 -1.367188 2.125 -1.015625 C 2.269531 -0.671875 2.523438 -0.5 2.890625 -0.5 Z "/>
</g>
<g id="glyph-0-11">
<path d="M 0.15625 0 L 0.15625 -0.5 L 0.28125 -0.5 C 0.375 -0.5 0.472656 -0.507812 0.578125 -0.53125 C 0.679688 -0.5625 0.765625 -0.617188 0.828125 -0.703125 C 0.898438 -0.796875 0.9375 -0.929688 0.9375 -1.109375 L 0.9375 -6.09375 C 0.9375 -6.257812 0.898438 -6.382812 0.828125 -6.46875 C 0.753906 -6.550781 0.664062 -6.601562 0.5625 -6.625 C 0.457031 -6.65625 0.363281 -6.671875 0.28125 -6.671875 L 0.15625 -6.671875 L 0.15625 -7.171875 L 2.375 -7.171875 L 2.375 -1.109375 C 2.375 -0.929688 2.410156 -0.796875 2.484375 -0.703125 C 2.554688 -0.617188 2.644531 -0.5625 2.75 -0.53125 C 2.863281 -0.507812 2.960938 -0.5 3.046875 -0.5 L 3.15625 -0.5 L 3.15625 0 Z "/>
</g>
<g id="glyph-0-12">
<path d="M 0.671875 -4.0625 C 0.597656 -4.257812 0.515625 -4.390625 0.421875 -4.453125 C 0.328125 -4.523438 0.1875 -4.5625 0 -4.5625 L -0.03125 -4.5625 L -0.03125 -5.0625 L 2.734375 -5.0625 L 2.734375 -4.5625 L 2.609375 -4.5625 C 2.421875 -4.5625 2.28125 -4.53125 2.1875 -4.46875 C 2.09375 -4.414062 2.046875 -4.3125 2.046875 -4.15625 C 2.046875 -4.113281 2.050781 -4.050781 2.0625 -3.96875 C 2.082031 -3.894531 2.101562 -3.820312 2.125 -3.75 L 2.46875 -2.53125 C 2.53125 -2.300781 2.585938 -2.066406 2.640625 -1.828125 C 2.691406 -1.585938 2.726562 -1.390625 2.75 -1.234375 L 2.78125 -1.234375 C 2.8125 -1.390625 2.847656 -1.550781 2.890625 -1.71875 C 2.941406 -1.882812 3.007812 -2.085938 3.09375 -2.328125 L 4.046875 -5.015625 L 4.65625 -5.015625 L 5.59375 -2.234375 C 5.664062 -2.003906 5.71875 -1.8125 5.75 -1.65625 C 5.78125 -1.5 5.804688 -1.359375 5.828125 -1.234375 L 5.859375 -1.234375 C 5.890625 -1.390625 5.921875 -1.535156 5.953125 -1.671875 C 5.992188 -1.816406 6.046875 -2.007812 6.109375 -2.25 L 6.53125 -3.625 C 6.550781 -3.707031 6.566406 -3.789062 6.578125 -3.875 C 6.597656 -3.96875 6.609375 -4.039062 6.609375 -4.09375 C 6.609375 -4.40625 6.40625 -4.5625 6 -4.5625 L 5.921875 -4.5625 L 5.921875 -5.0625 L 8.09375 -5.0625 L 8.09375 -4.5625 L 7.96875 -4.5625 C 7.78125 -4.5625 7.640625 -4.515625 7.546875 -4.421875 C 7.453125 -4.328125 7.351562 -4.128906 7.25 -3.828125 L 6.046875 0 L 5.015625 0 L 3.984375 -3.140625 L 2.90625 0 L 1.875 0 Z "/>
</g>
<g id="glyph-0-13">
<path d="M 2.1875 0.09375 C 1.5 0.09375 1.007812 -0.0078125 0.71875 -0.21875 C 0.425781 -0.425781 0.28125 -0.691406 0.28125 -1.015625 C 0.28125 -1.222656 0.328125 -1.375 0.421875 -1.46875 C 0.523438 -1.570312 0.644531 -1.640625 0.78125 -1.671875 C 0.925781 -1.710938 1.050781 -1.734375 1.15625 -1.734375 C 1.15625 -1.335938 1.25 -1.023438 1.4375 -0.796875 C 1.625 -0.578125 1.875 -0.46875 2.1875 -0.46875 C 2.507812 -0.46875 2.742188 -0.53125 2.890625 -0.65625 C 3.035156 -0.78125 3.109375 -0.929688 3.109375 -1.109375 C 3.109375 -1.316406 3.023438 -1.484375 2.859375 -1.609375 C 2.703125 -1.742188 2.398438 -1.890625 1.953125 -2.046875 C 1.441406 -2.222656 1.050781 -2.429688 0.78125 -2.671875 C 0.507812 -2.910156 0.375 -3.242188 0.375 -3.671875 C 0.375 -4.171875 0.554688 -4.546875 0.921875 -4.796875 C 1.296875 -5.046875 1.789062 -5.171875 2.40625 -5.171875 C 2.800781 -5.171875 3.117188 -5.128906 3.359375 -5.046875 C 3.609375 -4.960938 3.785156 -4.851562 3.890625 -4.71875 C 4.003906 -4.582031 4.0625 -4.441406 4.0625 -4.296875 C 4.0625 -4.078125 3.984375 -3.910156 3.828125 -3.796875 C 3.679688 -3.691406 3.4375 -3.640625 3.09375 -3.640625 C 3.09375 -3.953125 3.023438 -4.195312 2.890625 -4.375 C 2.753906 -4.550781 2.546875 -4.640625 2.265625 -4.640625 C 2.066406 -4.640625 1.890625 -4.585938 1.734375 -4.484375 C 1.578125 -4.390625 1.5 -4.242188 1.5 -4.046875 C 1.5 -3.910156 1.535156 -3.789062 1.609375 -3.6875 C 1.679688 -3.59375 1.8125 -3.5 2 -3.40625 C 2.1875 -3.3125 2.453125 -3.207031 2.796875 -3.09375 C 3.210938 -2.945312 3.554688 -2.753906 3.828125 -2.515625 C 4.097656 -2.273438 4.234375 -1.957031 4.234375 -1.5625 C 4.234375 -1.039062 4.050781 -0.632812 3.6875 -0.34375 C 3.332031 -0.0507812 2.832031 0.09375 2.1875 0.09375 Z "/>
</g>
<g id="glyph-0-14">
<path d="M 0.1875 0 L 0.1875 -0.5 L 0.203125 -0.5 C 0.421875 -0.5 0.597656 -0.535156 0.734375 -0.609375 C 0.867188 -0.691406 0.9375 -0.875 0.9375 -1.15625 L 0.9375 -3.9375 C 0.9375 -4.207031 0.875 -4.378906 0.75 -4.453125 C 0.632812 -4.523438 0.472656 -4.5625 0.265625 -4.5625 L 0.234375 -4.5625 L 0.234375 -5.0625 L 2.21875 -5.0625 L 2.34375 -4.390625 L 2.390625 -4.390625 C 2.515625 -4.628906 2.648438 -4.800781 2.796875 -4.90625 C 2.941406 -5.019531 3.101562 -5.09375 3.28125 -5.125 C 3.457031 -5.164062 3.640625 -5.1875 3.828125 -5.1875 C 4.316406 -5.1875 4.695312 -5.039062 4.96875 -4.75 C 5.25 -4.457031 5.390625 -3.992188 5.390625 -3.359375 L 5.390625 -1.171875 C 5.390625 -0.878906 5.441406 -0.691406 5.546875 -0.609375 C 5.648438 -0.535156 5.804688 -0.5 6.015625 -0.5 L 6.046875 -0.5 L 6.046875 0 L 3.953125 0 L 3.953125 -3.109375 C 3.953125 -3.515625 3.894531 -3.828125 3.78125 -4.046875 C 3.664062 -4.265625 3.472656 -4.375 3.203125 -4.375 C 2.992188 -4.375 2.828125 -4.304688 2.703125 -4.171875 C 2.585938 -4.035156 2.503906 -3.851562 2.453125 -3.625 C 2.398438 -3.40625 2.375 -3.171875 2.375 -2.921875 L 2.375 -1.109375 C 2.375 -0.847656 2.4375 -0.679688 2.5625 -0.609375 C 2.6875 -0.535156 2.851562 -0.5 3.0625 -0.5 L 3.09375 -0.5 L 3.09375 0 Z "/>
</g>
<g id="glyph-0-15">
<path d="M 2.296875 0.09375 C 1.867188 0.09375 1.53125 -0.015625 1.28125 -0.234375 C 1.03125 -0.453125 0.90625 -0.835938 0.90625 -1.390625 L 0.90625 -4.421875 L 0.203125 -4.421875 L 0.203125 -4.890625 C 0.398438 -4.890625 0.578125 -4.929688 0.734375 -5.015625 C 0.898438 -5.097656 1.03125 -5.191406 1.125 -5.296875 C 1.320312 -5.503906 1.46875 -5.816406 1.5625 -6.234375 L 2.34375 -6.234375 L 2.34375 -5.0625 L 3.546875 -5.0625 L 3.546875 -4.421875 L 2.34375 -4.421875 L 2.34375 -1.484375 C 2.34375 -1.203125 2.390625 -0.992188 2.484375 -0.859375 C 2.585938 -0.734375 2.75 -0.671875 2.96875 -0.671875 C 3.09375 -0.671875 3.207031 -0.675781 3.3125 -0.6875 C 3.425781 -0.707031 3.535156 -0.726562 3.640625 -0.75 L 3.640625 -0.140625 C 3.535156 -0.0976562 3.367188 -0.0507812 3.140625 0 C 2.910156 0.0625 2.628906 0.09375 2.296875 0.09375 Z "/>
</g>
<g id="glyph-0-16">
<path d="M 2.234375 2.265625 C 0.753906 2.265625 0.015625 1.828125 0.015625 0.953125 C 0.015625 0.617188 0.125 0.359375 0.34375 0.171875 C 0.5625 -0.00390625 0.878906 -0.109375 1.296875 -0.140625 C 1.117188 -0.210938 0.957031 -0.316406 0.8125 -0.453125 C 0.675781 -0.585938 0.609375 -0.765625 0.609375 -0.984375 C 0.609375 -1.191406 0.6875 -1.375 0.84375 -1.53125 C 1 -1.6875 1.195312 -1.832031 1.4375 -1.96875 C 1.164062 -2.070312 0.9375 -2.242188 0.75 -2.484375 C 0.570312 -2.734375 0.484375 -3.050781 0.484375 -3.4375 C 0.484375 -3.988281 0.640625 -4.414062 0.953125 -4.71875 C 1.273438 -5.03125 1.773438 -5.1875 2.453125 -5.1875 C 2.671875 -5.1875 2.878906 -5.15625 3.078125 -5.09375 C 3.273438 -5.039062 3.441406 -4.972656 3.578125 -4.890625 C 3.742188 -5.066406 3.898438 -5.195312 4.046875 -5.28125 C 4.203125 -5.375 4.375 -5.421875 4.5625 -5.421875 C 4.78125 -5.421875 4.945312 -5.363281 5.0625 -5.25 C 5.175781 -5.144531 5.234375 -5.019531 5.234375 -4.875 C 5.234375 -4.738281 5.1875 -4.613281 5.09375 -4.5 C 5 -4.394531 4.820312 -4.34375 4.5625 -4.34375 C 4.5625 -4.46875 4.523438 -4.5625 4.453125 -4.625 C 4.378906 -4.695312 4.296875 -4.734375 4.203125 -4.734375 C 4.078125 -4.734375 3.972656 -4.703125 3.890625 -4.640625 C 4.023438 -4.492188 4.132812 -4.3125 4.21875 -4.09375 C 4.3125 -3.882812 4.359375 -3.664062 4.359375 -3.4375 C 4.359375 -2.957031 4.203125 -2.5625 3.890625 -2.25 C 3.585938 -1.9375 3.109375 -1.78125 2.453125 -1.78125 C 2.378906 -1.78125 2.28125 -1.78125 2.15625 -1.78125 C 2.039062 -1.789062 1.957031 -1.800781 1.90625 -1.8125 C 1.820312 -1.769531 1.742188 -1.707031 1.671875 -1.625 C 1.597656 -1.539062 1.5625 -1.441406 1.5625 -1.328125 C 1.5625 -1.234375 1.601562 -1.160156 1.6875 -1.109375 C 1.769531 -1.054688 1.878906 -1.03125 2.015625 -1.03125 L 3.15625 -1.03125 C 3.78125 -1.03125 4.238281 -0.898438 4.53125 -0.640625 C 4.820312 -0.390625 4.96875 -0.0351562 4.96875 0.421875 C 4.96875 0.992188 4.742188 1.441406 4.296875 1.765625 C 3.847656 2.097656 3.160156 2.265625 2.234375 2.265625 Z M 2.421875 -2.34375 C 2.671875 -2.34375 2.835938 -2.441406 2.921875 -2.640625 C 3.015625 -2.835938 3.0625 -3.101562 3.0625 -3.4375 C 3.0625 -3.789062 3.015625 -4.070312 2.921875 -4.28125 C 2.835938 -4.5 2.671875 -4.609375 2.421875 -4.609375 C 2.171875 -4.609375 2 -4.5 1.90625 -4.28125 C 1.8125 -4.0625 1.765625 -3.78125 1.765625 -3.4375 C 1.765625 -3.101562 1.8125 -2.835938 1.90625 -2.640625 C 2.007812 -2.441406 2.179688 -2.34375 2.421875 -2.34375 Z M 2.25 1.703125 C 2.800781 1.703125 3.203125 1.617188 3.453125 1.453125 C 3.703125 1.296875 3.828125 1.0625 3.828125 0.75 C 3.828125 0.550781 3.765625 0.410156 3.640625 0.328125 C 3.515625 0.253906 3.320312 0.21875 3.0625 0.21875 L 1.96875 0.21875 C 1.84375 0.21875 1.710938 0.234375 1.578125 0.265625 C 1.453125 0.304688 1.34375 0.375 1.25 0.46875 C 1.164062 0.570312 1.125 0.726562 1.125 0.9375 C 1.125 1.445312 1.5 1.703125 2.25 1.703125 Z "/>
</g>
<g id="glyph-0-17">
<path d="M -0.046875 -2.203125 L -0.046875 -2.875 L 9.484375 -2.875 L 9.484375 -2.203125 Z "/>
</g>
<g id="glyph-0-18">
<path d="M 2.359375 0.09375 C 1.742188 0.09375 1.269531 -0.113281 0.9375 -0.53125 C 0.601562 -0.945312 0.4375 -1.609375 0.4375 -2.515625 C 0.4375 -3.429688 0.597656 -4.101562 0.921875 -4.53125 C 1.253906 -4.957031 1.726562 -5.171875 2.34375 -5.171875 C 2.695312 -5.171875 2.984375 -5.097656 3.203125 -4.953125 C 3.429688 -4.816406 3.613281 -4.640625 3.75 -4.421875 L 3.8125 -4.421875 C 3.789062 -4.597656 3.769531 -4.796875 3.75 -5.015625 C 3.738281 -5.234375 3.734375 -5.414062 3.734375 -5.5625 L 3.734375 -6.09375 C 3.734375 -6.34375 3.65625 -6.5 3.5 -6.5625 C 3.351562 -6.632812 3.175781 -6.671875 2.96875 -6.671875 L 2.890625 -6.671875 L 2.890625 -7.171875 L 5.171875 -7.171875 L 5.171875 -1.15625 C 5.171875 -0.96875 5.207031 -0.828125 5.28125 -0.734375 C 5.351562 -0.640625 5.445312 -0.578125 5.5625 -0.546875 C 5.6875 -0.515625 5.816406 -0.5 5.953125 -0.5 L 6 -0.5 L 6 0 L 4.15625 0 L 3.890625 -0.734375 L 3.8125 -0.734375 C 3.675781 -0.484375 3.492188 -0.28125 3.265625 -0.125 C 3.035156 0.0195312 2.734375 0.09375 2.359375 0.09375 Z M 2.765625 -0.609375 C 3.140625 -0.609375 3.394531 -0.765625 3.53125 -1.078125 C 3.664062 -1.398438 3.734375 -1.882812 3.734375 -2.53125 C 3.734375 -3.15625 3.664062 -3.632812 3.53125 -3.96875 C 3.394531 -4.300781 3.140625 -4.46875 2.765625 -4.46875 C 2.453125 -4.46875 2.226562 -4.300781 2.09375 -3.96875 C 1.957031 -3.632812 1.890625 -3.15625 1.890625 -2.53125 C 1.890625 -1.882812 1.957031 -1.398438 2.09375 -1.078125 C 2.226562 -0.765625 2.453125 -0.609375 2.765625 -0.609375 Z "/>
</g>
<g id="glyph-0-19">
<path d="M 0.1875 0 L 0.1875 -0.5 L 0.203125 -0.5 C 0.421875 -0.5 0.597656 -0.535156 0.734375 -0.609375 C 0.867188 -0.691406 0.9375 -0.875 0.9375 -1.15625 L 0.9375 -3.96875 C 0.9375 -4.238281 0.875 -4.410156 0.75 -4.484375 C 0.632812 -4.554688 0.472656 -4.59375 0.265625 -4.59375 L 0.234375 -4.59375 L 0.234375 -5.0625 L 2.21875 -5.0625 L 2.34375 -4.390625 L 2.390625 -4.390625 C 2.515625 -4.628906 2.648438 -4.800781 2.796875 -4.90625 C 2.941406 -5.019531 3.101562 -5.09375 3.28125 -5.125 C 3.457031 -5.164062 3.640625 -5.1875 3.828125 -5.1875 C 4.171875 -5.1875 4.46875 -5.117188 4.71875 -4.984375 C 4.96875 -4.859375 5.144531 -4.660156 5.25 -4.390625 L 5.34375 -4.390625 C 5.46875 -4.628906 5.609375 -4.800781 5.765625 -4.90625 C 5.921875 -5.019531 6.085938 -5.09375 6.265625 -5.125 C 6.453125 -5.164062 6.644531 -5.1875 6.84375 -5.1875 C 7.320312 -5.1875 7.703125 -5.039062 7.984375 -4.75 C 8.265625 -4.457031 8.40625 -3.992188 8.40625 -3.359375 L 8.40625 -1.171875 C 8.40625 -0.878906 8.453125 -0.691406 8.546875 -0.609375 C 8.648438 -0.535156 8.8125 -0.5 9.03125 -0.5 L 9.0625 -0.5 L 9.0625 0 L 6.96875 0 L 6.96875 -3.109375 C 6.96875 -3.515625 6.910156 -3.828125 6.796875 -4.046875 C 6.679688 -4.265625 6.484375 -4.375 6.203125 -4.375 C 6.015625 -4.375 5.859375 -4.3125 5.734375 -4.1875 C 5.609375 -4.070312 5.519531 -3.910156 5.46875 -3.703125 C 5.414062 -3.492188 5.390625 -3.269531 5.390625 -3.03125 L 5.390625 -1.171875 C 5.390625 -0.878906 5.441406 -0.691406 5.546875 -0.609375 C 5.648438 -0.535156 5.804688 -0.5 6.015625 -0.5 L 6.046875 -0.5 L 6.046875 0 L 3.953125 0 L 3.953125 -3.109375 C 3.953125 -3.515625 3.894531 -3.828125 3.78125 -4.046875 C 3.664062 -4.265625 3.472656 -4.375 3.203125 -4.375 C 2.992188 -4.375 2.828125 -4.304688 2.703125 -4.171875 C 2.585938 -4.035156 2.503906 -3.851562 2.453125 -3.625 C 2.398438 -3.40625 2.375 -3.171875 2.375 -2.921875 L 2.375 -1.109375 C 2.375 -0.847656 2.4375 -0.679688 2.5625 -0.609375 C 2.6875 -0.535156 2.851562 -0.5 3.0625 -0.5 L 3.09375 -0.5 L 3.09375 0 Z "/>
</g>
<g id="glyph-0-20">
<path d="M 0.109375 0 L 0.109375 -0.5 L 0.1875 -0.5 C 0.414062 -0.5 0.597656 -0.539062 0.734375 -0.625 C 0.867188 -0.707031 1.03125 -0.867188 1.21875 -1.109375 L 2.40625 -2.53125 L 1.21875 -4.0625 C 0.957031 -4.394531 0.6875 -4.5625 0.40625 -4.5625 L 0.28125 -4.5625 L 0.28125 -5.0625 L 3.25 -5.0625 L 3.25 -4.5625 L 3.21875 -4.5625 C 3 -4.5625 2.851562 -4.53125 2.78125 -4.46875 C 2.71875 -4.414062 2.6875 -4.351562 2.6875 -4.28125 C 2.6875 -4.175781 2.753906 -4.03125 2.890625 -3.84375 L 3.421875 -3.203125 L 3.875 -3.75 C 4.03125 -3.945312 4.109375 -4.125 4.109375 -4.28125 C 4.109375 -4.382812 4.0625 -4.457031 3.96875 -4.5 C 3.882812 -4.539062 3.769531 -4.5625 3.625 -4.5625 L 3.59375 -4.5625 L 3.59375 -5.0625 L 5.78125 -5.0625 L 5.78125 -4.5625 L 5.6875 -4.5625 C 5.507812 -4.5625 5.359375 -4.519531 5.234375 -4.4375 C 5.109375 -4.363281 4.941406 -4.203125 4.734375 -3.953125 L 3.765625 -2.765625 L 5.15625 -1 C 5.300781 -0.820312 5.429688 -0.691406 5.546875 -0.609375 C 5.671875 -0.535156 5.789062 -0.5 5.90625 -0.5 L 6.03125 -0.5 L 6.03125 0 L 3.03125 0 L 3.03125 -0.5 L 3.078125 -0.5 C 3.453125 -0.5 3.640625 -0.601562 3.640625 -0.8125 C 3.640625 -0.882812 3.617188 -0.960938 3.578125 -1.046875 C 3.535156 -1.140625 3.4375 -1.28125 3.28125 -1.46875 L 2.75 -2.109375 L 2.078125 -1.296875 C 2.023438 -1.222656 1.976562 -1.144531 1.9375 -1.0625 C 1.90625 -0.976562 1.890625 -0.898438 1.890625 -0.828125 C 1.890625 -0.722656 1.929688 -0.640625 2.015625 -0.578125 C 2.109375 -0.523438 2.257812 -0.5 2.46875 -0.5 L 2.5 -0.5 L 2.5 0 Z "/>
</g>
<g id="glyph-0-21">
<path d="M 1.609375 -5.90625 C 1.390625 -5.90625 1.203125 -5.957031 1.046875 -6.0625 C 0.890625 -6.175781 0.8125 -6.351562 0.8125 -6.59375 C 0.8125 -6.832031 0.890625 -7.003906 1.046875 -7.109375 C 1.203125 -7.210938 1.390625 -7.265625 1.609375 -7.265625 C 1.828125 -7.265625 2.015625 -7.210938 2.171875 -7.109375 C 2.335938 -7.003906 2.421875 -6.832031 2.421875 -6.59375 C 2.421875 -6.351562 2.335938 -6.175781 2.171875 -6.0625 C 2.015625 -5.957031 1.828125 -5.90625 1.609375 -5.90625 Z M 0.15625 0 L 0.15625 -0.5 L 0.28125 -0.5 C 0.375 -0.5 0.472656 -0.507812 0.578125 -0.53125 C 0.679688 -0.5625 0.765625 -0.617188 0.828125 -0.703125 C 0.898438 -0.796875 0.9375 -0.929688 0.9375 -1.109375 L 0.9375 -3.984375 C 0.9375 -4.148438 0.898438 -4.273438 0.828125 -4.359375 C 0.753906 -4.441406 0.664062 -4.492188 0.5625 -4.515625 C 0.457031 -4.546875 0.363281 -4.5625 0.28125 -4.5625 L 0.15625 -4.5625 L 0.15625 -5.0625 L 2.375 -5.0625 L 2.375 -1.109375 C 2.375 -0.929688 2.410156 -0.796875 2.484375 -0.703125 C 2.554688 -0.617188 2.644531 -0.5625 2.75 -0.53125 C 2.863281 -0.507812 2.960938 -0.5 3.046875 -0.5 L 3.15625 -0.5 L 3.15625 0 Z "/>
</g>
</g>
</defs>
<g fill="rgb(89.803922%, 90.588235%, 92.156863%)" fill-opacity="1">
<use xlink:href="#glyph-0-0" x="30" y="30.095703"/>
<use xlink:href="#glyph-0-1" x="35" y="30.095703"/>
<use xlink:href="#glyph-0-2" x="38" y="30.095703"/>
<use xlink:href="#glyph-0-3" x="40" y="30.095703"/>
<use xlink:href="#glyph-0-4" x="46" y="30.095703"/>
<use xlink:href="#glyph-0-5" x="52" y="30.095703"/>
<use xlink:href="#glyph-0-2" x="57" y="30.095703"/>
<use xlink:href="#glyph-0-6" x="59" y="30.095703"/>
<use xlink:href="#glyph-0-7" x="65" y="30.095703"/>
<use xlink:href="#glyph-0-8" x="71" y="30.095703"/>
<use xlink:href="#glyph-0-7" x="76" y="30.095703"/>
<use xlink:href="#glyph-0-9" x="82" y="30.095703"/>
<use xlink:href="#glyph-0-10" x="88" y="30.095703"/>
<use xlink:href="#glyph-0-11" x="94" y="30.095703"/>
<use xlink:href="#glyph-0-7" x="97" y="30.095703"/>
<use xlink:href="#glyph-0-2" x="103" y="30.095703"/>
<use xlink:href="#glyph-0-12" x="105" y="30.095703"/>
<use xlink:href="#glyph-0-7" x="113" y="30.095703"/>
<use xlink:href="#glyph-0-13" x="119" y="30.095703"/>
<use xlink:href="#glyph-0-2" x="124" y="30.095703"/>
<use xlink:href="#glyph-0-14" x="126" y="30.095703"/>
<use xlink:href="#glyph-0-10" x="132" y="30.095703"/>
<use xlink:href="#glyph-0-15" x="138" y="30.095703"/>
<use xlink:href="#glyph-0-2" x="142" y="30.095703"/>
<use xlink:href="#glyph-0-16" x="144" y="30.095703"/>
<use xlink:href="#glyph-0-10" x="149" y="30.095703"/>
<use xlink:href="#glyph-0-14" x="155" y="30.095703"/>
<use xlink:href="#glyph-0-5" x="161" y="30.095703"/>
<use xlink:href="#glyph-0-2" x="166" y="30.095703"/>
<use xlink:href="#glyph-0-17" x="168" y="30.095703"/>
<use xlink:href="#glyph-0-2" x="177" y="30.095703"/>
<use xlink:href="#glyph-0-12" x="179" y="30.095703"/>
<use xlink:href="#glyph-0-5" x="187" y="30.095703"/>
<use xlink:href="#glyph-0-2" x="192" y="30.095703"/>
<use xlink:href="#glyph-0-14" x="194" y="30.095703"/>
<use xlink:href="#glyph-0-5" x="200" y="30.095703"/>
<use xlink:href="#glyph-0-5" x="205" y="30.095703"/>
<use xlink:href="#glyph-0-18" x="210" y="30.095703"/>
<use xlink:href="#glyph-0-5" x="216" y="30.095703"/>
<use xlink:href="#glyph-0-18" x="221" y="30.095703"/>
<use xlink:href="#glyph-0-2" x="227" y="30.095703"/>
<use xlink:href="#glyph-0-10" x="229" y="30.095703"/>
<use xlink:href="#glyph-0-14" x="235" y="30.095703"/>
<use xlink:href="#glyph-0-5" x="241" y="30.095703"/>
<use xlink:href="#glyph-0-2" x="246" y="30.095703"/>
<use xlink:href="#glyph-0-19" x="248" y="30.095703"/>
<use xlink:href="#glyph-0-10" x="257" y="30.095703"/>
<use xlink:href="#glyph-0-8" x="263" y="30.095703"/>
<use xlink:href="#glyph-0-5" x="268" y="30.095703"/>
<use xlink:href="#glyph-0-2" x="273" y="30.095703"/>
<use xlink:href="#glyph-0-7" x="275" y="30.095703"/>
<use xlink:href="#glyph-0-20" x="281" y="30.095703"/>
<use xlink:href="#glyph-0-21" x="287" y="30.095703"/>
<use xlink:href="#glyph-0-13" x="290" y="30.095703"/>
</g>
</svg>
